<?xml version="1.0" encoding="utf-8"?>
<!-- Generator: Adobe Illustrator 21.0.0, SVG Export Plug-In . SVG Version: 6.00 Build 0)  -->
<svg version="1.1" id="Layer_1" xmlns="http://www.w3.org/2000/svg" xmlns:xlink="http://www.w3.org/1999/xlink" x="0px" y="0px"
	 viewBox="0 0 128 27" style="enable-background:new 0 0 128 27;" xml:space="preserve">
<style type="text/css">
	.st0{fill:#FFFFFF;}
	.st1{fill:#FFFFFF;enable-background:new    ;}
</style>
<g>
	<path class="st0" d="M46.8,21v-2.9h-7.3V6.3h-3.2V21H46.8z M64.2,21v-2.9h-8V15h6.9v-2.9h-6.9v-3h7.9V6.3H53V21H64.2z M85.5,21V6.3
		H82l-3.9,6.2l-3.9-6.2h-3.5V21H74v-9.5l4.1,6.2h0.1l4.1-6.3V21H85.5L85.5,21z M107.8,13.6c0,4.2-3.3,7.6-7.8,7.6
		c-4.5,0-7.8-3.4-7.8-7.6v0c0-4.2,3.3-7.6,7.8-7.6S107.8,9.4,107.8,13.6L107.8,13.6L107.8,13.6z M104.4,13.7L104.4,13.7
		c0-2.6-1.8-4.7-4.5-4.7c-2.6,0-4.4,2.1-4.4,4.6v0c0,2.5,1.8,4.6,4.5,4.6C102.6,18.3,104.4,16.2,104.4,13.7L104.4,13.7z M127.5,21
		V6.3h-3.2v9.1l-6.9-9.1h-3V21h3.2v-9.3l7.1,9.3H127.5L127.5,21z"/>
	<path class="st1" d="M0,12.7C0.1,8.6,4.1,2.8,6.8,0.9C7.4,0.5,7.5,0,7.9,0c0.4,0,0.7,0.5,1.3,0.9C12,2.7,16,8,16,12.7
		c0,0-2.6,1.7-8,1.7S0,12.7,0,12.7z M7.9,10.6c-4.6,0-6.8,1.1-6.8,1.4s3.2,1.6,6.8,1.6s6.9-1.3,6.9-1.6
		C14.9,11.7,12.5,10.6,7.9,10.6L7.9,10.6z M0,14.3C0.2,14.5,2.8,16,8,16c5.1,0,7.7-1.4,8-1.6c-0.4,3.9-4,9.1-6.6,10.8
		C8.8,25.6,8.5,26,8.1,26s-0.8-0.4-1.4-0.8C4,23.5,0.3,18.8,0,14.3L0,14.3z"/>
</g>
</svg>
